<?xml version="1.0" encoding="utf-8"?>
<!-- Generator: Adobe Illustrator 24.3.0, SVG Export Plug-In . SVG Version: 6.00 Build 0)  -->
<svg version="1.1" id="Layer_1" xmlns="http://www.w3.org/2000/svg" xmlns:xlink="http://www.w3.org/1999/xlink" x="0px" y="0px"
	 viewBox="0 0 417 370.2" style="enable-background:new 0 0 417 370.2;" xml:space="preserve">
<style type="text/css">
	.st0{fill:#0A0A0A;}
</style>
<g>
	<path class="st0" d="M149.7,102.3c1.7-0.7,3.4-1.5,5.1-2.2c28.1-12.3,56.1-24.6,84.2-37c7.9-3.5,15.8-7,23.8-10.4
		c4.8-2.1,9.7,1.4,9.4,6.6c-0.2,2.8-1.7,4.6-4.2,5.7c-8.7,3.8-17.4,7.6-26.2,11.5c-19.9,8.8-39.9,17.5-59.8,26.3
		c-14,6.2-28,12.3-42,18.4c-1.2,0.5-1.5,1.1-1.6,2.4c-0.4,11-0.8,22.1-1.2,33.1c-0.5,13.8-1,27.6-1.6,41.3
		c-0.2,6.3-0.5,12.6-0.8,18.9c0.4,0.2,0.5-0.1,0.7-0.2c2.5-2.1,5-4.3,7.5-6.4c0.6-0.5,0.8-1,0.6-1.9c-2.7-10.4-3.6-21-2.5-31.7
		c2.4-24.5,12.6-45.3,30.8-62c13-11.9,28.4-19.4,45.7-22.6c17.2-3.1,34-1.4,50.3,5c1.2,0.5,2.4,1,3.6,1.5c0.6,0.3,1,0.3,1.5-0.2
		c5.6-4.9,11.2-9.6,16.8-14.5c1.3-1.1,2.5-2.3,3.9-3.3c2.2-1.4,4.5-1.6,6.8-0.5c2.3,1.1,3.5,3.1,3.7,5.6c0.1,1.1-0.2,2.1-0.9,3
		c-2.9,3.9-5.9,7.6-8.6,11.6c-1.7,2.6-3.5,5.1-5.4,7.6c-0.4,0.6-0.4,0.8,0.2,1.2c16.4,12.5,27.5,28.6,33.4,48.3
		c1.4,4.7,2.5,9.5,3.1,14.3c0.1,0.4,0.1,0.8,0.2,1.3c4.1-1.6,8.1-3.1,12.1-4.7c19.5-7.6,39-15.2,58.5-22.8c4-1.5,8,0.5,9.1,4.5
		c0.9,3.3-0.8,6.6-4,7.9c-4.8,1.9-9.7,3.8-14.5,5.7c-19,7.4-38,14.8-57,22.2c-1.1,0.4-2.7,0.6-3.2,1.5c-0.6,0.9-0.3,2.4-0.4,3.7
		c-1,14.4-5,27.9-12,40.4c-8.4,14.9-20,26.7-34.8,35.3c-1.7,1-3.5,2-5.3,2.8c-0.9,0.4-1.3,0.9-1.2,2c0.3,14.1,0.6,28.3,0.9,42.4
		c0.3,13,0.5,26,0.8,39c0.1,3.6-2.2,6.6-5.4,7.5c-0.7,0.2-1.5,0.2-2.3,0.2c-47-0.1-94-0.1-141-0.2c-2.6,0-4.8-0.7-6.4-2.8
		c-0.2-0.3-0.6-0.5-0.9-0.7c-2.1-1.5-3.1-3.5-3-6c0.4-11.8,0.9-23.6,1.4-35.4c0.6-15.1,1.2-30.1,1.8-45.2c0.3-7.3,0.6-14.6,0.9-21.9
		c0-0.2,0-0.5,0-0.7c-0.4-0.2-0.6,0.2-0.9,0.4c-12.5,10.7-24.9,21.4-37.4,32.2c-11.6,10-23.2,19.9-34.7,29.9
		c-3.7,3.2-8.6,2.1-10.6-1.3c-1.6-2.8-1.1-6.3,1.5-8.5c3.8-3.3,7.7-6.6,11.6-10c18.2-15.6,36.4-31.3,54.6-46.9
		c5.3-4.5,10.5-9.1,15.8-13.6c0.6-0.5,0.8-1,0.8-1.7c0.4-12.4,0.9-24.9,1.4-37.3c0.4-9.8,0.8-19.7,1.1-29.5
		c0.3-6.5,0.5-13.1,0.8-19.6c0-0.2,0-0.4-0.2-0.7c-1,1.5-1.9,2.9-2.9,4.4c-15.3,23.4-30.6,46.7-45.9,70.1
		c-10.9,16.6-21.8,33.3-32.7,49.9c-6.5,9.9-13,19.9-19.5,29.8c-2.1,3.2-6.2,4.1-9.3,2.1c-3.2-2.1-4.1-6.1-1.9-9.4
		c10-15.2,19.9-30.4,29.9-45.6c7.5-11.4,14.9-22.8,22.4-34.2c10.5-16,21-32,31.5-48c10.5-16,21-32.1,31.5-48.1
		c9.8-15,19.6-29.9,29.4-44.9c9.2-14.1,18.4-28.1,27.7-42.2c2.7-4.2,5.5-8.4,8.2-12.6c1.6-2.4,3.9-3.4,6.8-2.9
		c3,0.6,4.7,2.5,5.3,5.4c0.4,1.7,0,3.4-1,4.9c-8,12.3-16.1,24.5-24.1,36.8c-7.7,11.7-15.4,23.5-23.1,35.2c-2.2,3.4-4.5,6.8-6.7,10.3
		C149.7,102.2,149.7,102.3,149.7,102.3z M134.1,347.1c0.7,0,1.1,0,1.6,0c35,0.1,70,0.1,105,0.2c6.6,0,13.3,0,19.9,0
		c0.9,0,1.2-0.2,1.1-1.1c-0.1-1.1,0-2.1-0.1-3.2c-0.5-22-0.9-44-1.4-66.1c0-1.5,0-1.5-1.5-1.1c-12.2,3.5-24.5,4.4-37.1,2.7
		c-12.5-1.7-24.1-5.7-34.9-12.1c-1-0.6-1.3-0.4-1.9,0.5c-14.2,22.4-28.4,44.9-42.6,67.3C139.6,338.5,136.9,342.7,134.1,347.1z
		 M232.3,266c9.9,0,18.3-1.4,26.5-4.1c0.7-0.2,1.1-0.5,1.1-1.4c-0.4-17.7-0.8-35.5-1.1-53.2c0-1.3,0-2.5,0.1-3.8
		c0.3-2.8,1.9-4.7,4.5-5.8c16.4-6.4,32.8-12.8,49.2-19.1c0.8-0.3,0.9-0.7,0.8-1.4c-0.3-2.8-0.6-5.6-1.2-8.3
		c-4.1-19.7-14-35.9-29.8-48.4c-0.9-0.7-1.2-0.6-1.9,0.3c-6,8.6-12,17.1-18,25.6c-4,5.6-8.2,11.2-11.9,16.9
		c-7.5,11.5-14.8,23.2-22.1,34.9c-11.7,18.5-23.5,37-35.2,55.5c-0.4,0.6-0.4,0.9,0.3,1.4C206,262.3,219.3,265.9,232.3,266z
		 M130.9,327.2c0.1-0.1,0.3-0.4,0.5-0.7c8.7-13.8,17.5-27.6,26.2-41.3c14.2-22.4,28.4-44.8,42.7-67.3c14.3-22.6,28.6-45.1,42.9-67.7
		c3.4-5.4,6.9-10.9,10.3-16.4c0.1-0.2,0.6-0.5,0.3-0.7c-0.3-0.3-0.6,0-0.9,0.3c-0.6,0.5-1.1,1-1.7,1.5c-9.1,7.8-18.2,15.7-27.3,23.5
		c-14.9,12.8-29.8,25.6-44.7,38.5c-14.7,12.6-29.4,25.2-44,37.9c-0.7,0.6-1,1.2-1,2.1c-0.1,5-0.3,9.9-0.5,14.9
		c-0.6,14.9-1.2,29.8-1.7,44.6c-0.3,7.3-0.6,14.6-0.8,22C130.8,321.3,130.9,324.3,130.9,327.2z M261,108.8c-0.3-0.2-0.5-0.2-0.7-0.3
		c-13.3-4.7-27-5.7-40.8-3.1c-11.9,2.2-22.8,7-32.5,14.3c-11.9,8.9-20.8,20.2-26.5,33.9c-6,14.4-7.7,29.3-5.3,44.7
		c0.1,0.4-0.1,0.9,0.3,1c0.4,0.2,0.7-0.4,1-0.6c10.2-8.7,20.3-17.5,30.5-26.2c21.5-18.5,43-37,64.6-55.6
		C254.6,114.3,257.7,111.6,261,108.8z M272.6,231.9c0.1,7.5,0.3,15,0.4,22.4c0,0.9,0.2,1,1,0.5c1.6-1.1,3.3-2,4.9-3.2
		c14.4-10.1,24.5-23.5,30.3-40.1c2-5.8,3.4-11.8,4-17.9c0.1-1.1-0.2-0.9-0.9-0.6c-0.7,0.3-1.5,0.6-2.2,0.9
		c-12.3,4.8-24.6,9.6-36.9,14.3c-0.9,0.3-1.1,0.8-1.1,1.7C272.3,217.3,272.5,224.6,272.6,231.9z"/>
</g>
</svg>
